<svg width="322" height="110" viewBox="0 0 322 110" fill="none" xmlns="http://www.w3.org/2000/svg">
<g filter="url(#filter0_d_19_4)">
<path d="M50.4167 70.75C50.4167 69.6454 49.5212 68.75 48.4167 68.75H30.7361C29.2493 68.75 28.2823 67.1854 28.9472 65.8556L55.7945 12.1611C56.7383 10.2734 59.5833 10.945 59.5833 13.0555V39.25C59.5833 40.3546 60.4788 41.25 61.5833 41.25H79.2639C80.7507 41.25 81.7177 42.8146 81.0528 44.1444L54.2055 97.839C53.2617 99.7266 50.4167 99.055 50.4167 96.9445V70.75Z" fill="url(#paint0_radial_19_4)"/>
</g>
<path d="M109.254 73.54C106.806 73.54 104.628 73.234 102.72 72.622C100.812 71.974 99.246 71.02 98.022 69.76C96.798 68.5 95.952 66.97 95.484 65.17C95.016 63.334 94.98 61.246 95.376 58.906C95.628 57.43 95.934 55.846 96.294 54.154C96.69 52.462 97.068 50.842 97.428 49.294C98.22 46.198 99.408 43.57 100.992 41.41C102.612 39.214 104.664 37.54 107.148 36.388C109.668 35.236 112.638 34.66 116.058 34.66C118.398 34.66 120.522 34.966 122.43 35.578C124.374 36.154 125.994 37.018 127.29 38.17C128.622 39.286 129.558 40.636 130.098 42.22C130.674 43.768 130.782 45.514 130.422 47.458C130.386 47.782 130.242 48.052 129.99 48.268C129.774 48.484 129.504 48.592 129.18 48.592H122.916C122.484 48.592 122.142 48.484 121.89 48.268C121.674 48.052 121.548 47.692 121.512 47.188C121.62 45.136 121.098 43.696 119.946 42.868C118.83 42.04 117.336 41.626 115.464 41.626C113.232 41.626 111.306 42.238 109.686 43.462C108.066 44.686 106.914 46.72 106.23 49.564C105.474 52.516 104.826 55.54 104.286 58.636C103.782 61.48 104.034 63.514 105.042 64.738C106.05 65.962 107.652 66.574 109.848 66.574C111.72 66.574 113.394 66.178 114.87 65.386C116.382 64.558 117.606 63.1 118.542 61.012C118.83 60.472 119.1 60.112 119.352 59.932C119.64 59.716 120 59.608 120.432 59.608H126.642C126.966 59.608 127.218 59.716 127.398 59.932C127.614 60.148 127.686 60.418 127.614 60.742C127.11 62.614 126.354 64.342 125.346 65.926C124.338 67.474 123.06 68.824 121.512 69.976C120 71.128 118.218 72.01 116.166 72.622C114.15 73.234 111.846 73.54 109.254 73.54ZM141.027 73.54C139.227 73.54 137.661 73.252 136.329 72.676C135.033 72.064 134.007 71.2 133.251 70.084C132.495 68.932 131.991 67.582 131.739 66.034C131.523 64.45 131.577 62.704 131.901 60.796C132.009 60.112 132.117 59.5 132.225 58.96C132.369 58.384 132.513 57.772 132.657 57.124C133.125 55.252 133.755 53.542 134.547 51.994C135.339 50.446 136.311 49.114 137.463 47.998C138.615 46.846 139.947 45.964 141.459 45.352C143.007 44.704 144.735 44.38 146.643 44.38C148.875 44.38 150.567 44.722 151.719 45.406C152.871 46.054 153.771 46.864 154.419 47.836L154.743 46.27C154.815 45.874 154.995 45.55 155.283 45.298C155.607 45.046 155.949 44.92 156.309 44.92H161.439C161.835 44.92 162.123 45.046 162.303 45.298C162.519 45.55 162.591 45.874 162.519 46.27L157.119 71.65C157.047 72.046 156.867 72.37 156.579 72.622C156.291 72.874 155.949 73 155.553 73H150.423C150.027 73 149.721 72.874 149.505 72.622C149.325 72.37 149.271 72.046 149.343 71.65L149.721 69.814C148.641 70.894 147.453 71.794 146.157 72.514C144.861 73.198 143.151 73.54 141.027 73.54ZM144.105 67.06C145.473 67.06 146.625 66.754 147.561 66.142C148.533 65.53 149.307 64.756 149.883 63.82C150.495 62.884 150.945 61.876 151.233 60.796C151.413 60.112 151.575 59.428 151.719 58.744C151.863 58.06 151.989 57.394 152.097 56.746C152.277 55.738 152.277 54.802 152.097 53.938C151.917 53.038 151.485 52.3 150.801 51.724C150.153 51.148 149.181 50.86 147.885 50.86C146.625 50.86 145.545 51.166 144.645 51.778C143.745 52.354 143.007 53.128 142.431 54.1C141.855 55.072 141.405 56.134 141.081 57.286C140.937 57.826 140.793 58.384 140.649 58.96C140.505 59.536 140.397 60.094 140.325 60.634C140.181 61.786 140.145 62.848 140.217 63.82C140.325 64.792 140.685 65.584 141.297 66.196C141.909 66.772 142.845 67.06 144.105 67.06ZM177.488 73C175.04 73 173.078 72.64 171.602 71.92C170.126 71.164 169.136 70.012 168.632 68.464C168.164 66.916 168.164 64.972 168.632 62.632L171.062 51.292H166.85C166.454 51.292 166.148 51.166 165.932 50.914C165.752 50.662 165.698 50.338 165.77 49.942L166.526 46.27C166.598 45.874 166.796 45.55 167.12 45.298C167.444 45.046 167.786 44.92 168.146 44.92H172.412L174.302 36.01C174.374 35.614 174.554 35.29 174.842 35.038C175.166 34.786 175.526 34.66 175.922 34.66H181.214C181.574 34.66 181.862 34.786 182.078 35.038C182.294 35.29 182.366 35.614 182.294 36.01L180.35 44.92H187.1C187.496 44.92 187.784 45.046 187.964 45.298C188.144 45.55 188.198 45.874 188.126 46.27L187.37 49.942C187.298 50.338 187.1 50.662 186.776 50.914C186.488 51.166 186.146 51.292 185.75 51.292H179L176.732 61.984C176.552 62.884 176.444 63.676 176.408 64.36C176.408 65.008 176.588 65.512 176.948 65.872C177.344 66.196 178.01 66.358 178.946 66.358H183.05C183.41 66.358 183.68 66.484 183.86 66.736C184.076 66.988 184.148 67.294 184.076 67.654L183.212 71.65C183.14 72.046 182.96 72.37 182.672 72.622C182.384 72.874 182.042 73 181.646 73H177.488ZM198.191 73.54C196.391 73.54 194.825 73.252 193.493 72.676C192.197 72.064 191.171 71.2 190.415 70.084C189.659 68.932 189.155 67.582 188.903 66.034C188.687 64.45 188.741 62.704 189.065 60.796C189.173 60.112 189.281 59.5 189.389 58.96C189.533 58.384 189.677 57.772 189.821 57.124C190.289 55.252 190.919 53.542 191.711 51.994C192.503 50.446 193.475 49.114 194.627 47.998C195.779 46.846 197.111 45.964 198.623 45.352C200.171 44.704 201.899 44.38 203.807 44.38C206.039 44.38 207.731 44.722 208.883 45.406C210.035 46.054 210.935 46.864 211.583 47.836L211.907 46.27C211.979 45.874 212.159 45.55 212.447 45.298C212.771 45.046 213.113 44.92 213.473 44.92H218.603C218.999 44.92 219.287 45.046 219.467 45.298C219.683 45.55 219.755 45.874 219.683 46.27L214.283 71.65C214.211 72.046 214.031 72.37 213.743 72.622C213.455 72.874 213.113 73 212.717 73H207.587C207.191 73 206.885 72.874 206.669 72.622C206.489 72.37 206.435 72.046 206.507 71.65L206.885 69.814C205.805 70.894 204.617 71.794 203.321 72.514C202.025 73.198 200.315 73.54 198.191 73.54ZM201.269 67.06C202.637 67.06 203.789 66.754 204.725 66.142C205.697 65.53 206.471 64.756 207.047 63.82C207.659 62.884 208.109 61.876 208.397 60.796C208.577 60.112 208.739 59.428 208.883 58.744C209.027 58.06 209.153 57.394 209.261 56.746C209.441 55.738 209.441 54.802 209.261 53.938C209.081 53.038 208.649 52.3 207.965 51.724C207.317 51.148 206.345 50.86 205.049 50.86C203.789 50.86 202.709 51.166 201.809 51.778C200.909 52.354 200.171 53.128 199.595 54.1C199.019 55.072 198.569 56.134 198.245 57.286C198.101 57.826 197.957 58.384 197.813 58.96C197.669 59.536 197.561 60.094 197.489 60.634C197.345 61.786 197.309 62.848 197.381 63.82C197.489 64.792 197.849 65.584 198.461 66.196C199.073 66.772 200.009 67.06 201.269 67.06ZM222.178 73C221.818 73 221.53 72.874 221.314 72.622C221.098 72.37 221.026 72.046 221.098 71.65L228.712 36.01C228.784 35.614 228.964 35.29 229.252 35.038C229.576 34.786 229.918 34.66 230.278 34.66H235.678C236.074 34.66 236.362 34.786 236.542 35.038C236.758 35.29 236.83 35.614 236.758 36.01L229.144 71.65C229.072 72.046 228.892 72.37 228.604 72.622C228.316 72.874 227.974 73 227.578 73H222.178ZM238.668 83.26C238.236 83.26 237.948 83.062 237.804 82.666C237.66 82.306 237.732 81.928 238.02 81.532L244.608 71.164L239.316 46.486C239.244 46.09 239.316 45.73 239.532 45.406C239.784 45.082 240.18 44.92 240.72 44.92H245.634C246.066 44.92 246.372 45.028 246.552 45.244C246.768 45.46 246.894 45.712 246.93 46L250.224 62.74L260.808 46C260.988 45.712 261.204 45.46 261.456 45.244C261.744 45.028 262.122 44.92 262.59 44.92H268.098C268.494 44.92 268.782 45.082 268.962 45.406C269.142 45.73 269.106 46.108 268.854 46.54L245.85 82.18C245.706 82.468 245.49 82.72 245.202 82.936C244.914 83.152 244.536 83.26 244.068 83.26H238.668ZM267.71 73C267.314 73 267.008 72.874 266.792 72.622C266.576 72.37 266.504 72.046 266.576 71.65L267.386 68.032C267.458 67.708 267.566 67.438 267.71 67.222C267.854 66.97 268.034 66.754 268.25 66.574L284.72 51.184H272.732C272.372 51.184 272.084 51.058 271.868 50.806C271.688 50.554 271.634 50.248 271.706 49.888L272.462 46.27C272.534 45.874 272.714 45.55 273.002 45.298C273.326 45.046 273.686 44.92 274.082 44.92H295.142C295.538 44.92 295.826 45.046 296.006 45.298C296.186 45.55 296.24 45.874 296.168 46.27L295.412 50.158C295.304 50.662 295.016 51.112 294.548 51.508L278.402 66.736H291.632C292.028 66.736 292.316 66.862 292.496 67.114C292.712 67.366 292.766 67.672 292.658 68.032L291.902 71.65C291.83 72.046 291.632 72.37 291.308 72.622C291.02 72.874 290.696 73 290.336 73H267.71ZM310.642 73C308.194 73 306.232 72.64 304.756 71.92C303.28 71.164 302.29 70.012 301.786 68.464C301.318 66.916 301.318 64.972 301.786 62.632L304.216 51.292H300.004C299.608 51.292 299.302 51.166 299.086 50.914C298.906 50.662 298.852 50.338 298.924 49.942L299.68 46.27C299.752 45.874 299.95 45.55 300.274 45.298C300.598 45.046 300.94 44.92 301.3 44.92H305.566L307.456 36.01C307.528 35.614 307.708 35.29 307.996 35.038C308.32 34.786 308.68 34.66 309.076 34.66H314.368C314.728 34.66 315.016 34.786 315.232 35.038C315.448 35.29 315.52 35.614 315.448 36.01L313.504 44.92H320.254C320.65 44.92 320.938 45.046 321.118 45.298C321.298 45.55 321.352 45.874 321.28 46.27L320.524 49.942C320.452 50.338 320.254 50.662 319.93 50.914C319.642 51.166 319.3 51.292 318.904 51.292H312.154L309.886 61.984C309.706 62.884 309.598 63.676 309.562 64.36C309.562 65.008 309.742 65.512 310.102 65.872C310.498 66.196 311.164 66.358 312.1 66.358H316.204C316.564 66.358 316.834 66.484 317.014 66.736C317.23 66.988 317.302 67.294 317.23 67.654L316.366 71.65C316.294 72.046 316.114 72.37 315.826 72.622C315.538 72.874 315.196 73 314.8 73H310.642Z" fill="url(#paint1_linear_19_4)"/>
<defs>
<filter id="filter0_d_19_4" x="-4" y="0" width="118" height="118" filterUnits="userSpaceOnUse" color-interpolation-filters="sRGB">
<feFlood flood-opacity="0" result="BackgroundImageFix"/>
<feColorMatrix in="SourceAlpha" type="matrix" values="0 0 0 0 0 0 0 0 0 0 0 0 0 0 0 0 0 0 127 0" result="hardAlpha"/>
<feOffset dy="4"/>
<feGaussianBlur stdDeviation="2"/>
<feComposite in2="hardAlpha" operator="out"/>
<feColorMatrix type="matrix" values="0 0 0 0 0 0 0 0 0 0 0 0 0 0 0 0 0 0 0.25 0"/>
<feBlend mode="normal" in2="BackgroundImageFix" result="effect1_dropShadow_19_4"/>
<feBlend mode="normal" in="SourceGraphic" in2="effect1_dropShadow_19_4" result="shape"/>
</filter>
<radialGradient id="paint0_radial_19_4" cx="0" cy="0" r="1" gradientUnits="userSpaceOnUse" gradientTransform="translate(5.1462 -4.50291) rotate(54.3211) scale(151.653 82.7196)">
<stop stop-color="#865CBB"/>
<stop offset="1" stop-color="#1E1E1E"/>
</radialGradient>
<linearGradient id="paint1_linear_19_4" x1="42.5" y1="95.5" x2="452.99" y2="22.9436" gradientUnits="userSpaceOnUse">
<stop stop-color="#1E1E1E"/>
<stop offset="1" stop-color="#865CBB"/>
</linearGradient>
</defs>
</svg>
