<svg width="778" height="137" viewBox="0 0 778 137" fill="none" xmlns="http://www.w3.org/2000/svg">
<rect x="518" width="260" height="137" rx="68.5" fill="#FF0000"/>
<path d="M580.311 100C579.724 100 579.244 99.8133 578.871 99.44C578.497 99.0667 578.311 98.5867 578.311 98V46C578.311 45.4133 578.497 44.9333 578.871 44.56C579.244 44.1867 579.724 44 580.311 44H589.031C589.617 44 590.097 44.1867 590.471 44.56C590.844 44.9333 591.031 45.4133 591.031 46V66H612.711V46C612.711 45.4133 612.897 44.9333 613.271 44.56C613.644 44.1867 614.124 44 614.711 44H623.431C624.017 44 624.497 44.1867 624.871 44.56C625.244 44.9333 625.431 45.4133 625.431 46V98C625.431 98.5867 625.244 99.0667 624.871 99.44C624.497 99.8133 624.017 100 623.431 100H614.711C614.124 100 613.644 99.8133 613.271 99.44C612.897 99.0667 612.711 98.5867 612.711 98V77.36H591.031V98C591.031 98.5867 590.844 99.0667 590.471 99.44C590.097 99.8133 589.617 100 589.031 100H580.311ZM651.695 100.8C648.602 100.8 645.855 100.107 643.455 98.72C641.108 97.28 639.268 95.2267 637.935 92.56C636.655 89.84 636.015 86.56 636.015 82.72V60.4C636.015 59.8133 636.202 59.3333 636.575 58.96C636.948 58.5867 637.402 58.4 637.935 58.4H646.415C647.002 58.4 647.482 58.5867 647.855 58.96C648.228 59.3333 648.415 59.8133 648.415 60.4V82.24C648.415 88.2133 651.028 91.2 656.255 91.2C658.762 91.2 660.735 90.4267 662.175 88.88C663.668 87.28 664.415 85.0667 664.415 82.24V60.4C664.415 59.8133 664.602 59.3333 664.975 58.96C665.348 58.5867 665.828 58.4 666.415 58.4H674.895C675.428 58.4 675.882 58.5867 676.255 58.96C676.628 59.3333 676.815 59.8133 676.815 60.4V98C676.815 98.5867 676.628 99.0667 676.255 99.44C675.882 99.8133 675.428 100 674.895 100H667.055C666.468 100 665.988 99.8133 665.615 99.44C665.242 99.0667 665.055 98.5867 665.055 98V94.88C663.668 96.8 661.882 98.2667 659.695 99.28C657.508 100.293 654.842 100.8 651.695 100.8ZM711.044 100.8C708.004 100.8 705.47 100.293 703.444 99.28C701.417 98.2133 699.764 96.88 698.484 95.28V98C698.484 98.5867 698.297 99.0667 697.924 99.44C697.55 99.8133 697.07 100 696.484 100H688.884C688.297 100 687.817 99.8133 687.444 99.44C687.07 99.0667 686.884 98.5867 686.884 98V45.2C686.884 44.6133 687.07 44.1333 687.444 43.76C687.817 43.3867 688.297 43.2 688.884 43.2H697.124C697.657 43.2 698.11 43.3867 698.484 43.76C698.857 44.1333 699.044 44.6133 699.044 45.2V62.64C700.377 61.1467 702.03 59.9467 704.004 59.04C705.977 58.08 708.324 57.6 711.044 57.6C713.817 57.6 716.217 58.08 718.244 59.04C720.324 59.9467 722.084 61.2533 723.524 62.96C724.964 64.6133 726.057 66.5867 726.804 68.88C727.604 71.1733 728.03 73.7067 728.084 76.48C728.137 77.44 728.164 78.3467 728.164 79.2C728.164 80 728.137 80.9067 728.084 81.92C727.977 84.7467 727.524 87.3333 726.724 89.68C725.977 91.9733 724.884 93.9733 723.444 95.68C722.057 97.3333 720.324 98.6133 718.244 99.52C716.217 100.373 713.817 100.8 711.044 100.8ZM707.444 91.2C709.47 91.2 711.07 90.7733 712.244 89.92C713.417 89.0133 714.244 87.84 714.724 86.4C715.257 84.96 715.577 83.3867 715.684 81.68C715.79 80.0267 715.79 78.3733 715.684 76.72C715.577 75.0133 715.257 73.44 714.724 72C714.244 70.56 713.417 69.4133 712.244 68.56C711.07 67.6533 709.47 67.2 707.444 67.2C705.524 67.2 703.95 67.6267 702.724 68.48C701.55 69.3333 700.644 70.4267 700.004 71.76C699.417 73.04 699.097 74.4267 699.044 75.92C698.99 76.88 698.964 77.8667 698.964 78.88C698.964 79.8933 698.99 80.9067 699.044 81.92C699.15 83.52 699.47 85.0133 700.004 86.4C700.537 87.7867 701.417 88.9333 702.644 89.84C703.87 90.7467 705.47 91.2 707.444 91.2Z" fill="white"/>
<path d="M4.416 106.708C3.712 106.708 3.168 106.484 2.784 106.036C2.464 105.524 2.368 104.948 2.496 104.308L15.744 41.9084C15.872 41.2044 16.224 40.6284 16.8 40.1804C17.376 39.7324 18.016 39.5084 18.72 39.5084H44.832C53.152 39.5084 59.264 41.4284 63.168 45.2684C67.072 49.0444 68.288 54.4204 66.816 61.3964C65.856 65.9404 63.936 69.7804 61.056 72.9164C58.24 76.0524 54.88 78.4204 50.976 80.0204L59.136 103.636C59.2 103.828 59.232 103.988 59.232 104.116C59.232 104.244 59.2 104.436 59.136 104.692C59.072 105.204 58.784 105.684 58.272 106.132C57.76 106.516 57.248 106.708 56.736 106.708H43.968C42.752 106.708 41.92 106.42 41.472 105.844C41.088 105.204 40.8 104.628 40.608 104.116L34.176 82.9964H24.384L19.776 104.308C19.648 104.948 19.296 105.524 18.72 106.036C18.144 106.484 17.504 106.708 16.8 106.708H4.416ZM27.168 69.3644H38.304C41.312 69.3644 43.712 68.6284 45.504 67.1564C47.296 65.6844 48.48 63.7004 49.056 61.2044C49.568 58.7084 49.248 56.6924 48.096 55.1564C47.008 53.6204 44.896 52.8524 41.76 52.8524H30.72L27.168 69.3644ZM89.5268 107.668C84.5348 107.668 80.3428 106.772 76.9508 104.98C73.6228 103.124 71.3188 100.372 70.0388 96.7244C68.8228 93.0764 68.6948 88.5964 69.6548 83.2844C69.7828 82.8364 69.9108 82.2604 70.0388 81.5564C70.1668 80.8524 70.2948 80.3084 70.4228 79.9244C71.7028 74.8684 73.7508 70.5484 76.5668 66.9644C79.3828 63.3164 82.8388 60.5644 86.9348 58.7084C91.0308 56.7884 95.5428 55.8284 100.471 55.8284C106.103 55.8284 110.519 56.9484 113.719 59.1884C116.919 61.4284 119.031 64.4684 120.055 68.3084C121.079 72.1484 121.111 76.5324 120.151 81.4604L119.671 83.7644C119.543 84.4684 119.159 85.0444 118.519 85.4924C117.943 85.9404 117.335 86.1644 116.695 86.1644H85.9748C85.9748 86.2284 85.9428 86.3244 85.8788 86.4524C85.8788 86.5804 85.8468 86.7084 85.7828 86.8364C85.4628 88.6924 85.4308 90.3884 85.6868 91.9244C85.9428 93.4604 86.5828 94.6764 87.6068 95.5724C88.6308 96.4684 90.0068 96.9164 91.7348 96.9164C93.0148 96.9164 94.1028 96.7244 94.9988 96.3404C95.9588 95.8924 96.7908 95.4124 97.4948 94.9004C98.1988 94.3244 98.7748 93.8444 99.2228 93.4604C99.9268 92.7564 100.471 92.3404 100.855 92.2124C101.239 92.0204 101.815 91.9244 102.583 91.9244H114.487C115.127 91.9244 115.607 92.1164 115.927 92.5004C116.247 92.8844 116.311 93.3964 116.119 94.0364C115.799 95.1244 114.967 96.4364 113.623 97.9724C112.343 99.5084 110.551 101.044 108.247 102.58C105.943 104.052 103.223 105.268 100.087 106.228C96.9508 107.188 93.4308 107.668 89.5268 107.668ZM87.9908 76.6604H104.215L104.311 76.4684C104.823 74.3564 104.887 72.5644 104.503 71.0924C104.183 69.5564 103.479 68.3724 102.391 67.5404C101.367 66.7084 99.9908 66.2924 98.2628 66.2924C96.5348 66.2924 94.9988 66.7084 93.6548 67.5404C92.3108 68.3724 91.1588 69.5564 90.1988 71.0924C89.3028 72.5644 88.5988 74.3564 88.0868 76.4684L87.9908 76.6604ZM147.793 106.708C143.377 106.708 139.729 106.068 136.849 104.788C134.033 103.444 132.113 101.396 131.089 98.6444C130.065 95.8284 130.001 92.2124 130.897 87.7964L134.833 69.3644H127.345C126.641 69.3644 126.097 69.1404 125.713 68.6924C125.393 68.2444 125.297 67.6684 125.425 66.9644L127.057 59.1884C127.185 58.4844 127.537 57.9084 128.113 57.4604C128.689 57.0124 129.297 56.7884 129.937 56.7884H137.521L140.881 40.9484C141.009 40.2444 141.361 39.6684 141.937 39.2204C142.513 38.7724 143.121 38.5484 143.761 38.5484H154.897C155.601 38.5484 156.113 38.7724 156.433 39.2204C156.817 39.6684 156.945 40.2444 156.817 40.9484L153.457 56.7884H165.457C166.161 56.7884 166.673 57.0124 166.993 57.4604C167.377 57.9084 167.505 58.4844 167.377 59.1884L165.745 66.9644C165.617 67.6684 165.265 68.2444 164.689 68.6924C164.113 69.1404 163.505 69.3644 162.865 69.3644H150.769L147.121 86.4524C146.865 87.8604 146.737 89.1084 146.737 90.1964C146.737 91.2844 147.057 92.1164 147.697 92.6924C148.337 93.2684 149.425 93.5564 150.961 93.5564H158.545C159.249 93.5564 159.761 93.7804 160.081 94.2284C160.401 94.6764 160.497 95.2524 160.369 95.9564L158.641 104.308C158.513 104.948 158.161 105.524 157.585 106.036C157.073 106.484 156.465 106.708 155.761 106.708H147.793ZM168.425 106.708C167.721 106.708 167.177 106.484 166.793 106.036C166.409 105.524 166.28 104.948 166.409 104.308L176.009 59.1884C176.137 58.5484 176.489 58.0044 177.065 57.5564C177.641 57.0444 178.281 56.7884 178.984 56.7884H190.025C190.729 56.7884 191.241 57.0444 191.561 57.5564C191.945 58.0044 192.073 58.5484 191.945 59.1884L191.177 63.0284C192.713 61.1084 194.633 59.6044 196.937 58.5164C199.241 57.3644 202.121 56.7884 205.577 56.7884H210.953C211.657 56.7884 212.169 57.0124 212.489 57.4604C212.809 57.9084 212.905 58.4844 212.777 59.1884L210.761 69.0764C210.633 69.7164 210.281 70.2924 209.705 70.8044C209.129 71.2524 208.489 71.4764 207.785 71.4764H198.569C195.881 71.4764 193.673 72.2124 191.945 73.6844C190.281 75.0924 189.129 77.1084 188.489 79.7324L183.305 104.308C183.177 104.948 182.825 105.524 182.249 106.036C181.673 106.484 181.033 106.708 180.329 106.708H168.425ZM233.525 107.668C228.405 107.668 224.117 106.804 220.661 105.076C217.205 103.348 214.709 100.884 213.173 97.6844C211.701 94.4204 211.317 90.5484 212.021 86.0684C212.149 84.7884 212.373 83.3484 212.693 81.7484C213.077 80.0844 213.461 78.6444 213.845 77.4284C215.061 72.8844 216.917 69.0124 219.413 65.8124C221.909 62.6124 225.109 60.1484 229.013 58.4204C232.981 56.6924 237.621 55.8284 242.933 55.8284C247.989 55.8284 252.245 56.6924 255.701 58.4204C259.157 60.1484 261.685 62.6124 263.285 65.8124C264.885 69.0124 265.333 72.8844 264.629 77.4284C264.373 78.6444 264.085 80.0844 263.765 81.7484C263.445 83.3484 263.125 84.7884 262.805 86.0684C261.589 90.5484 259.765 94.4204 257.333 97.6844C254.901 100.884 251.733 103.348 247.829 105.076C243.925 106.804 239.157 107.668 233.525 107.668ZM234.965 95.9564C237.845 95.9564 240.181 95.0924 241.973 93.3644C243.765 91.6364 245.109 89.0444 246.005 85.5884C246.261 84.6284 246.549 83.3484 246.869 81.7484C247.253 80.1484 247.509 78.8684 247.637 77.9084C248.213 74.5164 248.053 71.9564 247.157 70.2284C246.261 68.4364 244.373 67.5404 241.493 67.5404C238.741 67.5404 236.469 68.4364 234.677 70.2284C232.885 71.9564 231.541 74.5164 230.645 77.9084C230.389 78.8684 230.069 80.1484 229.685 81.7484C229.365 83.3484 229.141 84.6284 229.013 85.5884C228.437 89.0444 228.565 91.6364 229.397 93.3644C230.293 95.0924 232.149 95.9564 234.965 95.9564ZM271.385 106.708C270.745 106.708 270.233 106.484 269.849 106.036C269.465 105.524 269.337 104.948 269.465 104.308L282.713 41.9084C282.841 41.2044 283.193 40.6284 283.769 40.1804C284.345 39.7324 284.953 39.5084 285.593 39.5084H311.129C315.033 39.5084 318.553 39.9564 321.689 40.8524C324.889 41.7484 327.545 43.1244 329.657 44.9804C331.769 46.8364 333.241 49.1724 334.073 51.9884C334.905 54.7404 334.937 57.9724 334.169 61.6844C332.633 69.0444 329.401 74.4844 324.473 78.0044C319.545 81.5244 312.953 83.2844 304.697 83.2844H291.737L287.321 104.308C287.193 104.948 286.841 105.524 286.265 106.036C285.753 106.484 285.145 106.708 284.441 106.708H271.385ZM294.329 70.0364H305.369C307.929 70.0364 310.233 69.3324 312.281 67.9244C314.393 66.5164 315.769 64.3724 316.409 61.4924C316.729 59.8284 316.793 58.3564 316.601 57.0764C316.409 55.7964 315.737 54.7724 314.585 54.0044C313.497 53.2364 311.801 52.8524 309.497 52.8524H297.977L294.329 70.0364ZM362.849 107.668C356.769 107.668 351.745 106.676 347.777 104.692C343.873 102.644 341.121 99.7004 339.521 95.8604C337.921 91.9564 337.601 87.2204 338.561 81.6524C339.073 78.9004 339.649 75.9884 340.289 72.9164C340.993 69.7804 341.665 66.8044 342.305 63.9884C343.649 58.5484 345.953 53.9404 349.217 50.1644C352.481 46.3884 356.513 43.5084 361.313 41.5244C366.177 39.5404 371.585 38.5484 377.537 38.5484C382.337 38.5484 386.465 39.1564 389.921 40.3724C393.377 41.5244 396.161 43.0924 398.273 45.0764C400.385 47.0604 401.857 49.2364 402.689 51.6044C403.521 53.9724 403.745 56.3084 403.361 58.6124C403.233 59.1884 402.913 59.6684 402.401 60.0524C401.953 60.4364 401.409 60.6284 400.769 60.6284H386.753C386.113 60.6284 385.633 60.5324 385.313 60.3404C384.993 60.0844 384.737 59.7324 384.545 59.2844C384.353 58.3244 383.937 57.3324 383.297 56.3084C382.657 55.2204 381.665 54.2924 380.321 53.5244C378.977 52.7564 377.089 52.3724 374.657 52.3724C371.009 52.3724 367.937 53.3324 365.441 55.2524C362.945 57.1724 361.153 60.2444 360.065 64.4684C359.425 67.1564 358.785 69.9084 358.145 72.7244C357.569 75.5404 357.025 78.3564 356.513 81.1724C355.745 85.6524 356.225 88.8844 357.953 90.8684C359.745 92.8524 362.465 93.8444 366.113 93.8444C368.481 93.8444 370.689 93.4284 372.737 92.5964C374.849 91.7644 376.641 90.4844 378.113 88.7564C379.585 86.9644 380.577 84.6924 381.089 81.9404L381.473 80.1164H372.449C371.745 80.1164 371.201 79.8924 370.817 79.4444C370.497 78.9324 370.401 78.3244 370.529 77.6204L372.065 70.5164C372.193 69.8124 372.545 69.2364 373.121 68.7884C373.697 68.2764 374.337 68.0204 375.041 68.0204H399.233C399.937 68.0204 400.449 68.2764 400.769 68.7884C401.153 69.2364 401.281 69.8124 401.153 70.5164L398.849 81.4604C397.697 86.9644 395.425 91.6684 392.033 95.5724C388.705 99.4764 384.513 102.484 379.457 104.596C374.465 106.644 368.929 107.668 362.849 107.668ZM405.447 106.708C404.807 106.708 404.295 106.484 403.911 106.036C403.527 105.524 403.399 104.948 403.527 104.308L416.775 41.9084C416.903 41.2044 417.255 40.6284 417.831 40.1804C418.407 39.7324 419.015 39.5084 419.655 39.5084H463.815C464.519 39.5084 465.031 39.7324 465.351 40.1804C465.735 40.6284 465.863 41.2044 465.735 41.9084L463.719 51.6044C463.591 52.3084 463.239 52.8844 462.663 53.3324C462.151 53.7804 461.543 54.0044 460.839 54.0044H431.175L428.199 68.1164H455.847C456.551 68.1164 457.063 68.3724 457.383 68.8844C457.767 69.3324 457.895 69.9084 457.767 70.6124L455.751 80.2124C455.623 80.8524 455.271 81.4284 454.695 81.9404C454.119 82.3884 453.479 82.6124 452.775 82.6124H425.127L420.423 104.308C420.295 104.948 419.943 105.524 419.367 106.036C418.855 106.484 418.247 106.708 417.543 106.708H405.447Z" fill="black"/>
</svg>
